# xmcd
#
# Track frame offsets: 
#        150
#        13285
#        28618
#        41236
#        55884
#        68859
#        85482
#        103753
#        111222
#        125228
#        138699
#        155369
#        169009
#        186755
#
# Disc length: 2690 seconds
#
# Revision: 1
# Processed by: cddbd v1.5.2PL0 Copyright (c) Steve Scherf et al.
# Submitted via: ExactAudioCopy v1.1
#
DISCID=ce0a800e
DTITLE=Young Knives - Voices Of Animals And Men
DYEAR=2006
DGENRE=Indie
TTITLE0=Part Timer
TTITLE1=The Decision
TTITLE2=Weekends And Bleak Days (Hot Summer)
TTITLE3=In The Pink
TTITLE4=Mystic Energy
TTITLE5=Here Comes The Rumour Mill
TTITLE6=Tailors
TTITLE7=Half Timer
TTITLE8=She's Attracted To
TTITLE9=Dialing Darling
TTITLE10=Another Hollow Line
TTITLE11=Coastguard
TTITLE12=Loughborough Suicide
TTITLE13=Tremblings Of Trails
EXTD=
EXTT0=
EXTT1=
EXTT2=
EXTT3=
EXTT4=
EXTT5=
EXTT6=
EXTT7=
EXTT8=
EXTT9=
EXTT10=
EXTT11=
EXTT12=
EXTT13=
PLAYORDER=
